<?xml version="1.0" standalone="no"?>
<!DOCTYPE svg PUBLIC "-//W3C//DTD SVG 20010904//EN"
 "http://www.w3.org/TR/2001/REC-SVG-20010904/DTD/svg10.dtd">
<svg version="1.0" xmlns="http://www.w3.org/2000/svg"
 width="300.000000pt" height="300.000000pt" viewBox="0 0 300.000000 300.000000"
 preserveAspectRatio="xMidYMid meet">

<g transform="translate(0.000000,300.000000) scale(0.100000,-0.100000)"
fill="#000000" stroke="none">
<path d="M1315 2286 c-213 -41 -391 -140 -541 -299 -166 -177 -244 -372 -244
-615 0 -187 50 -327 159 -445 129 -139 318 -223 577 -258 134 -18 453 -6 578
21 310 66 511 220 593 450 35 100 44 286 18 411 -70 347 -341 624 -704 721
-99 26 -334 34 -436 14z m414 -76 c172 -42 322 -131 451 -267 144 -152 216
-318 227 -528 11 -222 -70 -404 -232 -520 -156 -112 -403 -175 -685 -175 -497
0 -823 190 -885 515 -52 268 35 529 244 735 142 141 317 229 513 259 90 14
269 5 367 -19z"/>
<path d="M1428 1986 c-54 -19 -85 -42 -110 -80 -17 -26 -35 -37 -80 -51 -122
-36 -245 -144 -304 -266 -73 -148 -97 -280 -69 -375 46 -161 191 -284 410
-346 114 -32 306 -32 419 0 181 52 339 169 402 297 26 54 29 70 29 160 0 89
-4 109 -33 181 -73 183 -193 302 -357 354 -25 8 -59 33 -90 66 -68 71 -135 89
-217 60z m162 -91 c60 -57 59 -143 -2 -172 -68 -33 -178 -23 -218 19 -40 43
-18 131 43 169 49 31 137 23 177 -16z m-300 -137 c21 -77 91 -118 201 -118
112 0 190 47 204 124 8 42 15 42 97 1 130 -65 226 -200 269 -378 32 -130 -38
-266 -185 -365 -212 -142 -506 -153 -740 -29 -138 73 -216 184 -216 308 0 123
65 283 152 376 44 46 168 123 199 123 5 0 13 -19 19 -42z"/>
<path d="M1786 1358 c-30 -42 -10 -128 29 -128 21 0 45 40 45 75 0 35 -24 75
-45 75 -8 0 -21 -10 -29 -22z m55 -61 c-1 -12 -15 -9 -19 4 -3 6 1 10 8 8 6
-3 11 -8 11 -12z m-21 -27 c0 -5 -5 -10 -11 -10 -5 0 -7 5 -4 10 3 6 8 10 11
10 2 0 4 -4 4 -10z"/>
<path d="M1145 1354 c-22 -23 -17 -113 8 -128 30 -19 52 4 55 61 3 49 -13 83
-38 83 -5 0 -16 -7 -25 -16z m52 -80 c-9 -9 -28 6 -21 18 4 6 10 6 17 -1 6 -6
8 -13 4 -17z m-17 -18 c0 -3 -4 -8 -10 -11 -5 -3 -10 -1 -10 4 0 6 5 11 10 11
6 0 10 -2 10 -4z"/>
<path d="M1431 1235 c-34 -24 -53 -23 -83 3 -10 8 -25 12 -35 7 -16 -6 -15 -9
10 -31 44 -37 71 -40 121 -10 53 31 73 32 106 6 36 -28 92 -26 127 4 22 20 25
27 16 37 -10 10 -17 8 -36 -9 -29 -27 -61 -28 -94 -2 -35 27 -89 25 -132 -5z"/>
</g>
</svg>
